{
    "asset" : {
        "generator" : "Khronos glTF Blender I/O v1.6.16",
        "version" : "2.0"
    },
    "scene" : 0,
    "scenes" : [
        {
            "name" : "Scene",
            "nodes" : [
                0,
                1,
                2,
                3,
                4,
                5,
                6,
                7
            ]
        }
    ],
    "nodes" : [
        {
            "name" : "Camera",
            "rotation" : [
                0.4421956241130829,
                -0.4955059885978699,
                0.34657028317451477,
                0.6624393463134766
            ],
            "translation" : [
                -15.031108856201172,
                6.718308925628662,
                5.775790691375732
            ]
        },
        {
            "mesh" : 0,
            "name" : "table",
            "rotation" : [
                0,
                0,
                1,
                1.2467843597818717e-12
            ],
            "scale" : [
                1.0366408824920654,
                0.2060876339673996,
                1.0366408824920654
            ],
            "translation" : [
                -0.026003658771514893,
                1.4367724657058716,
                1.8201696872711182
            ]
        },
        {
            "mesh" : 1,
            "name" : "chaise1",
            "rotation" : [
                0.7153300046920776,
                0.007448012940585613,
                -0.6987093091011047,
                -0.007276185322552919
            ],
            "scale" : [
                1.0366408824920654,
                0.2060876339673996,
                1.0366408824920654
            ],
            "translation" : [
                1.4987566471099854,
                0.8438988924026489,
                3.9412388801574707
            ]
        },
        {
            "mesh" : 2,
            "name" : "chaise2",
            "rotation" : [
                -0.7071068286895752,
                0,
                0.7071068286895752,
                -4.52377150850225e-07
            ],
            "scale" : [
                1.0366408824920654,
                0.2060876339673996,
                1.0366408824920654
            ],
            "translation" : [
                -1.3701164722442627,
                0.8804188966751099,
                3.9432826042175293
            ]
        },
        {
            "mesh" : 3,
            "name" : "chaise3",
            "rotation" : [
                -0.7071068286895752,
                0,
                -0.7071068286895752,
                -4.52377150850225e-07
            ],
            "scale" : [
                1.0366408824920654,
                0.2060876339673996,
                1.0366408824920654
            ],
            "translation" : [
                1.451812982559204,
                0.863343358039856,
                -0.30084431171417236
            ]
        },
        {
            "mesh" : 4,
            "name" : "chaise4",
            "rotation" : [
                -0.7071068286895752,
                0,
                -0.7071068286895752,
                -4.52377150850225e-07
            ],
            "scale" : [
                1.0366408824920654,
                0.2060876339673996,
                1.0366408824920654
            ],
            "translation" : [
                -1.2802064418792725,
                0.863343358039856,
                -0.28679096698760986
            ]
        },
        {
            "mesh" : 5,
            "name" : "Cube",
            "scale" : [
                18.53787612915039,
                -0.10576152056455612,
                11.150230407714844
            ],
            "translation" : [
                0.6784765720367432,
                -0.6959282755851746,
                -1.819005012512207
            ]
        },
        {
            "name" : "Area",
            "rotation" : [
                -0.2672383785247803,
                0,
                0,
                0.9636304378509521
            ],
            "scale" : [
                7.697081089019775,
                7.697081089019775,
                7.697081089019775
            ],
            "translation" : [
                0,
                7.548554420471191,
                -2.5210835933685303
            ]
        }
    ],
    "materials" : [
        {
            "doubleSided" : true,
            "name" : "Material.002",
            "pbrMetallicRoughness" : {
                "baseColorFactor" : [
                    0.10653455555438995,
                    0.05869807302951813,
                    0.030824419111013412,
                    1
                ],
                "metallicFactor" : 0,
                "roughnessFactor" : 0.4000000059604645
            }
        }
    ],
    "meshes" : [
        {
            "name" : "Cube.001",
            "primitives" : [
                {
                    "attributes" : {
                        "POSITION" : 0,
                        "NORMAL" : 1,
                        "TEXCOORD_0" : 2
                    },
                    "indices" : 3,
                    "material" : 0
                }
            ]
        },
        {
            "name" : "Cube.002",
            "primitives" : [
                {
                    "attributes" : {
                        "POSITION" : 4,
                        "NORMAL" : 5,
                        "TEXCOORD_0" : 6
                    },
                    "indices" : 7,
                    "material" : 0
                }
            ]
        },
        {
            "name" : "Cube.027",
            "primitives" : [
                {
                    "attributes" : {
                        "POSITION" : 8,
                        "NORMAL" : 9,
                        "TEXCOORD_0" : 10
                    },
                    "indices" : 7,
                    "material" : 0
                }
            ]
        },
        {
            "name" : "Cube.028",
            "primitives" : [
                {
                    "attributes" : {
                        "POSITION" : 11,
                        "NORMAL" : 12,
                        "TEXCOORD_0" : 13
                    },
                    "indices" : 7,
                    "material" : 0
                }
            ]
        },
        {
            "name" : "Cube.029",
            "primitives" : [
                {
                    "attributes" : {
                        "POSITION" : 14,
                        "NORMAL" : 15,
                        "TEXCOORD_0" : 16
                    },
                    "indices" : 7,
                    "material" : 0
                }
            ]
        },
        {
            "name" : "Cube.003",
            "primitives" : [
                {
                    "attributes" : {
                        "POSITION" : 17,
                        "NORMAL" : 18,
                        "TEXCOORD_0" : 19
                    },
                    "indices" : 20
                }
            ]
        }
    ],
    "accessors" : [
        {
            "bufferView" : 0,
            "componentType" : 5126,
            "count" : 237,
            "max" : [
                3.0211973190307617,
                10.355871200561523,
                1.0000022649765015
            ],
            "min" : [
                -3.021475076675415,
                -1,
                -1
            ],
            "type" : "VEC3"
        },
        {
            "bufferView" : 1,
            "componentType" : 5126,
            "count" : 237,
            "type" : "VEC3"
        },
        {
            "bufferView" : 2,
            "componentType" : 5126,
            "count" : 237,
            "type" : "VEC2"
        },
        {
            "bufferView" : 3,
            "componentType" : 5123,
            "count" : 492,
            "type" : "SCALAR"
        },
        {
            "bufferView" : 4,
            "componentType" : 5126,
            "count" : 452,
            "max" : [
                0.8520240783691406,
                7.938266754150391,
                0.8519605398178101
            ],
            "min" : [
                -0.8520231246948242,
                -7.938266754150391,
                -0.8519604802131653
            ],
            "type" : "VEC3"
        },
        {
            "bufferView" : 5,
            "componentType" : 5126,
            "count" : 452,
            "type" : "VEC3"
        },
        {
            "bufferView" : 6,
            "componentType" : 5126,
            "count" : 452,
            "type" : "VEC2"
        },
        {
            "bufferView" : 7,
            "componentType" : 5123,
            "count" : 936,
            "type" : "SCALAR"
        },
        {
            "bufferView" : 8,
            "componentType" : 5126,
            "count" : 452,
            "max" : [
                0.8520240783691406,
                7.938266754150391,
                0.8519605398178101
            ],
            "min" : [
                -0.8520231246948242,
                -7.938266754150391,
                -0.8519604802131653
            ],
            "type" : "VEC3"
        },
        {
            "bufferView" : 9,
            "componentType" : 5126,
            "count" : 452,
            "type" : "VEC3"
        },
        {
            "bufferView" : 10,
            "componentType" : 5126,
            "count" : 452,
            "type" : "VEC2"
        },
        {
            "bufferView" : 11,
            "componentType" : 5126,
            "count" : 452,
            "max" : [
                0.8520240783691406,
                7.938266754150391,
                0.8519605398178101
            ],
            "min" : [
                -0.8520231246948242,
                -7.938266754150391,
                -0.8519604802131653
            ],
            "type" : "VEC3"
        },
        {
            "bufferView" : 12,
            "componentType" : 5126,
            "count" : 452,
            "type" : "VEC3"
        },
        {
            "bufferView" : 13,
            "componentType" : 5126,
            "count" : 452,
            "type" : "VEC2"
        },
        {
            "bufferView" : 14,
            "componentType" : 5126,
            "count" : 452,
            "max" : [
                0.8520240783691406,
                7.938266754150391,
                0.8519605398178101
            ],
            "min" : [
                -0.8520231246948242,
                -7.938266754150391,
                -0.8519604802131653
            ],
            "type" : "VEC3"
        },
        {
            "bufferView" : 15,
            "componentType" : 5126,
            "count" : 452,
            "type" : "VEC3"
        },
        {
            "bufferView" : 16,
            "componentType" : 5126,
            "count" : 452,
            "type" : "VEC2"
        },
        {
            "bufferView" : 17,
            "componentType" : 5126,
            "count" : 87,
            "max" : [
                1,
                1,
                1
            ],
            "min" : [
                -1,
                -158.4726104736328,
                -1
            ],
            "type" : "VEC3"
        },
        {
            "bufferView" : 18,
            "componentType" : 5126,
            "count" : 87,
            "type" : "VEC3"
        },
        {
            "bufferView" : 19,
            "componentType" : 5126,
            "count" : 87,
            "type" : "VEC2"
        },
        {
            "bufferView" : 20,
            "componentType" : 5123,
            "count" : 180,
            "type" : "SCALAR"
        }
    ],
    "bufferViews" : [
        {
            "buffer" : 0,
            "byteLength" : 2844,
            "byteOffset" : 0
        },
        {
            "buffer" : 0,
            "byteLength" : 2844,
            "byteOffset" : 2844
        },
        {
            "buffer" : 0,
            "byteLength" : 1896,
            "byteOffset" : 5688
        },
        {
            "buffer" : 0,
            "byteLength" : 984,
            "byteOffset" : 7584
        },
        {
            "buffer" : 0,
            "byteLength" : 5424,
            "byteOffset" : 8568
        },
        {
            "buffer" : 0,
            "byteLength" : 5424,
            "byteOffset" : 13992
        },
        {
            "buffer" : 0,
            "byteLength" : 3616,
            "byteOffset" : 19416
        },
        {
            "buffer" : 0,
            "byteLength" : 1872,
            "byteOffset" : 23032
        },
        {
            "buffer" : 0,
            "byteLength" : 5424,
            "byteOffset" : 24904
        },
        {
            "buffer" : 0,
            "byteLength" : 5424,
            "byteOffset" : 30328
        },
        {
            "buffer" : 0,
            "byteLength" : 3616,
            "byteOffset" : 35752
        },
        {
            "buffer" : 0,
            "byteLength" : 5424,
            "byteOffset" : 39368
        },
        {
            "buffer" : 0,
            "byteLength" : 5424,
            "byteOffset" : 44792
        },
        {
            "buffer" : 0,
            "byteLength" : 3616,
            "byteOffset" : 50216
        },
        {
            "buffer" : 0,
            "byteLength" : 5424,
            "byteOffset" : 53832
        },
        {
            "buffer" : 0,
            "byteLength" : 5424,
            "byteOffset" : 59256
        },
        {
            "buffer" : 0,
            "byteLength" : 3616,
            "byteOffset" : 64680
        },
        {
            "buffer" : 0,
            "byteLength" : 1044,
            "byteOffset" : 68296
        },
        {
            "buffer" : 0,
            "byteLength" : 1044,
            "byteOffset" : 69340
        },
        {
            "buffer" : 0,
            "byteLength" : 696,
            "byteOffset" : 70384
        },
        {
            "buffer" : 0,
            "byteLength" : 360,
            "byteOffset" : 71080
        }
    ],
    "buffers" : [
        {
            "byteLength" : 71440,
            "uri" : "data:application/octet-stream;base64,"
        }
    ]
}
