{
    "asset" : {
        "generator" : "Khronos glTF Blender I/O v1.6.16",
        "version" : "2.0"
    },
    "scene" : 0,
    "scenes" : [
        {
            "name" : "Scene",
            "nodes" : [
                0,
                1,
                2,
                3,
                4,
                5,
                6,
                7,
                8,
                9,
                10,
                11
            ]
        }
    ],
    "nodes" : [
        {
            "name" : "Empty",
            "rotation" : [
                0,
                -0.7036452293395996,
                0,
                0.7105515003204346
            ],
            "translation" : [
                0,
                -0.13715961575508118,
                0
            ]
        },
        {
            "mesh" : 0,
            "name" : "c1",
            "rotation" : [
                0.03186332806944847,
                -0.7113818526268005,
                0.7013387680053711,
                0.03231973201036453
            ],
            "scale" : [
                0.9999935030937195,
                0.8222006559371948,
                0.9999673366546631
            ],
            "translation" : [
                -1.4344580173492432,
                0,
                -0.8989639282226562
            ]
        },
        {
            "mesh" : 1,
            "name" : "Plane",
            "scale" : [
                9.515885353088379,
                4.148777961730957,
                5.810947895050049
            ],
            "translation" : [
                -1.3477455377578735,
                -0.13289812207221985,
                0
            ]
        },
        {
            "mesh" : 0,
            "name" : "c2",
            "rotation" : [
                -0.029084254056215286,
                -0.7115043997764587,
                0.701459527015686,
                -0.02950061298906803
            ],
            "scale" : [
                0.9999935030937195,
                0.8222006559371948,
                0.9999673366546631
            ],
            "translation" : [
                -2.0869810581207275,
                0,
                0.14670848846435547
            ]
        },
        {
            "mesh" : 0,
            "name" : "c3",
            "rotation" : [
                -0.07050100713968277,
                -0.708516001701355,
                0.698513388633728,
                -0.07151045650243759
            ],
            "scale" : [
                0.9999935030937195,
                0.8222006559371948,
                0.9999673366546631
            ],
            "translation" : [
                -2.8316094875335693,
                0,
                0.8283658623695374
            ]
        },
        {
            "mesh" : 0,
            "name" : "c4",
            "rotation" : [
                0.07399976998567581,
                -0.7081488370895386,
                0.6981513500213623,
                0.07505956292152405
            ],
            "scale" : [
                0.9999935030937195,
                0.8222006559371948,
                0.9999673366546631
            ],
            "translation" : [
                1.1781558990478516,
                0,
                -0.20690636336803436
            ]
        },
        {
            "mesh" : 0,
            "name" : "c5",
            "rotation" : [
                0.05994993448257446,
                -0.7095146775245667,
                0.6994979381561279,
                0.060808535665273666
            ],
            "scale" : [
                0.9999935030937195,
                0.8222006559371948,
                0.9999673366546631
            ],
            "translation" : [
                -0.703976035118103,
                0,
                0.030141446739435196
            ]
        },
        {
            "mesh" : 0,
            "name" : "c6",
            "rotation" : [
                0.03186332806944847,
                -0.7113818526268005,
                0.7013387680053711,
                0.03231973201036453
            ],
            "scale" : [
                0.9999935030937195,
                0.8222006559371948,
                0.9999673366546631
            ],
            "translation" : [
                0.08854180574417114,
                0,
                1.0441765785217285
            ]
        },
        {
            "mesh" : 0,
            "name" : "c7",
            "rotation" : [
                0.09327714890241623,
                -0.7058025002479553,
                0.6958381533622742,
                0.09461300075054169
            ],
            "scale" : [
                0.9999935030937195,
                0.8222006559371948,
                0.9999673366546631
            ],
            "translation" : [
                0.6503691673278809,
                0,
                -0.15549135208129883
            ]
        },
        {
            "name" : "Area",
            "rotation" : [
                0,
                0,
                0.5638799071311951,
                0.8258568048477173
            ],
            "scale" : [
                5.147225379943848,
                5.147225379943848,
                5.147225856781006
            ],
            "translation" : [
                -9.85860824584961,
                3.0059814453125,
                0
            ]
        },
        {
            "name" : "Area.002",
            "rotation" : [
                -0.4652465283870697,
                -0.8847038745880127,
                -0.013528057374060154,
                -0.02572469413280487
            ],
            "scale" : [
                5.147225379943848,
                5.147225379943848,
                5.147225856781006
            ],
            "translation" : [
                6.554206848144531,
                2.3322391510009766,
                -1.3451637029647827
            ]
        },
        {
            "name" : "Camera",
            "rotation" : [
                0.524512529373169,
                0.13567757606506348,
                -0.09863364696502686,
                0.8347153067588806
            ],
            "translation" : [
                2.3839263916015625,
                4.680766582489014,
                9.82205867767334
            ]
        }
    ],
    "materials" : [
        {
            "doubleSided" : true,
            "name" : "Corp Crayon",
            "pbrMetallicRoughness" : {
                "baseColorFactor" : [
                    0,
                    0.295708030462265,
                    0.02375005930662155,
                    1
                ],
                "metallicFactor" : 0.36818182468414307,
                "roughnessFactor" : 0.18636362254619598
            }
        },
        {
            "doubleSided" : true,
            "name" : "Bois Crayon",
            "pbrMetallicRoughness" : {
                "baseColorFactor" : [
                    0.7554467916488647,
                    0.5576208829879761,
                    0.42654237151145935,
                    1
                ],
                "metallicFactor" : 0,
                "roughnessFactor" : 0.29545456171035767
            }
        },
        {
            "doubleSided" : true,
            "name" : "Mine Crayon",
            "pbrMetallicRoughness" : {
                "baseColorFactor" : [
                    0,
                    0,
                    0,
                    1
                ],
                "metallicFactor" : 0,
                "roughnessFactor" : 0.23636364936828613
            }
        }
    ],
    "meshes" : [
        {
            "name" : "Cylinder",
            "primitives" : [
                {
                    "attributes" : {
                        "POSITION" : 0,
                        "NORMAL" : 1,
                        "TEXCOORD_0" : 2
                    },
                    "indices" : 3,
                    "material" : 0
                },
                {
                    "attributes" : {
                        "POSITION" : 4,
                        "NORMAL" : 5,
                        "TEXCOORD_0" : 6
                    },
                    "indices" : 7,
                    "material" : 1
                },
                {
                    "attributes" : {
                        "POSITION" : 8,
                        "NORMAL" : 9,
                        "TEXCOORD_0" : 10
                    },
                    "indices" : 11,
                    "material" : 2
                }
            ]
        },
        {
            "name" : "Plane",
            "primitives" : [
                {
                    "attributes" : {
                        "POSITION" : 12,
                        "NORMAL" : 13,
                        "TEXCOORD_0" : 14
                    },
                    "indices" : 15
                }
            ]
        }
    ],
    "accessors" : [
        {
            "bufferView" : 0,
            "componentType" : 5126,
            "count" : 100,
            "max" : [
                0.1616644412279129,
                2.957413673400879,
                0.176240473985672
            ],
            "min" : [
                -0.1592162698507309,
                -2.485431671142578,
                -0.17072248458862305
            ],
            "type" : "VEC3"
        },
        {
            "bufferView" : 1,
            "componentType" : 5126,
            "count" : 100,
            "type" : "VEC3"
        },
        {
            "bufferView" : 2,
            "componentType" : 5126,
            "count" : 100,
            "type" : "VEC2"
        },
        {
            "bufferView" : 3,
            "componentType" : 5123,
            "count" : 426,
            "type" : "SCALAR"
        },
        {
            "bufferView" : 4,
            "componentType" : 5126,
            "count" : 68,
            "max" : [
                0.14080001413822174,
                -2.4791312217712402,
                0.1293591558933258
            ],
            "min" : [
                -0.1592162698507309,
                -2.828679323196411,
                -0.17072248458862305
            ],
            "type" : "VEC3"
        },
        {
            "bufferView" : 5,
            "componentType" : 5126,
            "count" : 68,
            "type" : "VEC3"
        },
        {
            "bufferView" : 6,
            "componentType" : 5126,
            "count" : 68,
            "type" : "VEC2"
        },
        {
            "bufferView" : 7,
            "componentType" : 5123,
            "count" : 192,
            "type" : "SCALAR"
        },
        {
            "bufferView" : 8,
            "componentType" : 5126,
            "count" : 50,
            "max" : [
                0.03769436851143837,
                -2.8267929553985596,
                0.02871568687260151
            ],
            "min" : [
                -0.05211961641907692,
                -2.971452474594116,
                -0.06111787632107735
            ],
            "type" : "VEC3"
        },
        {
            "bufferView" : 9,
            "componentType" : 5126,
            "count" : 50,
            "type" : "VEC3"
        },
        {
            "bufferView" : 10,
            "componentType" : 5126,
            "count" : 50,
            "type" : "VEC2"
        },
        {
            "bufferView" : 11,
            "componentType" : 5123,
            "count" : 138,
            "type" : "SCALAR"
        },
        {
            "bufferView" : 12,
            "componentType" : 5126,
            "count" : 20,
            "max" : [
                1,
                1.6059056520462036,
                1
            ],
            "min" : [
                -1,
                0,
                -1
            ],
            "type" : "VEC3"
        },
        {
            "bufferView" : 13,
            "componentType" : 5126,
            "count" : 20,
            "type" : "VEC3"
        },
        {
            "bufferView" : 14,
            "componentType" : 5126,
            "count" : 20,
            "type" : "VEC2"
        },
        {
            "bufferView" : 15,
            "componentType" : 5123,
            "count" : 72,
            "type" : "SCALAR"
        }
    ],
    "bufferViews" : [
        {
            "buffer" : 0,
            "byteLength" : 1200,
            "byteOffset" : 0
        },
        {
            "buffer" : 0,
            "byteLength" : 1200,
            "byteOffset" : 1200
        },
        {
            "buffer" : 0,
            "byteLength" : 800,
            "byteOffset" : 2400
        },
        {
            "buffer" : 0,
            "byteLength" : 852,
            "byteOffset" : 3200
        },
        {
            "buffer" : 0,
            "byteLength" : 816,
            "byteOffset" : 4052
        },
        {
            "buffer" : 0,
            "byteLength" : 816,
            "byteOffset" : 4868
        },
        {
            "buffer" : 0,
            "byteLength" : 544,
            "byteOffset" : 5684
        },
        {
            "buffer" : 0,
            "byteLength" : 384,
            "byteOffset" : 6228
        },
        {
            "buffer" : 0,
            "byteLength" : 600,
            "byteOffset" : 6612
        },
        {
            "buffer" : 0,
            "byteLength" : 600,
            "byteOffset" : 7212
        },
        {
            "buffer" : 0,
            "byteLength" : 400,
            "byteOffset" : 7812
        },
        {
            "buffer" : 0,
            "byteLength" : 276,
            "byteOffset" : 8212
        },
        {
            "buffer" : 0,
            "byteLength" : 240,
            "byteOffset" : 8488
        },
        {
            "buffer" : 0,
            "byteLength" : 240,
            "byteOffset" : 8728
        },
        {
            "buffer" : 0,
            "byteLength" : 160,
            "byteOffset" : 8968
        },
        {
            "buffer" : 0,
            "byteLength" : 144,
            "byteOffset" : 9128
        }
    ],
    "buffers" : [
        {
            "byteLength" : 9272,
            "uri" : "data:application/octet-stream;base64,"
        }
    ]
}
